# xmcd
#
# Track frame offsets:
#	150
#	10925
#	24937
#	34212
#	46912
#	56065
#	73167
#	84567
#	106292
#	119967
#	136620
#	152820
#	166620
#	181085
#	194210
#	204057
#	217395
#	232120
#	246820
#	260762
#
# Disc length: 3652 seconds
#
# Revision: 0
# Processed by: cddbd v1.4PL0 Copyright (c) Steve Scherf et al.
# Submitted via: dBpowerAMP V4.0
#
DISCID=220e4214
DTITLE=Various Artist - Country Gospel - Reader's Digest Music - Sweet country Inspiration
DYEAR=2001
DGENRE=Gospel
TTITLE0=The Wings of a Dove
TTITLE1=Put Your Hand In the Hand
TTITLE2=I need Thee Every Hour
TTITLE3=Just A Closer Walk with Thee
TTITLE4=When the Roll Is Callled Up Yonder
TTITLE5=Oh, Happy Day
TTITLE6=Crying in the Chapel
TTITLE7=How Great Thou Art
TTITLE8=What A Friend We Have In Jesus
TTITLE9=Michael, Rowed the Boat Ashore
TTITLE10=Whispering Hope
TTITLE11=You Can't Be A Beacon (If Your Light Don't Shine
TTITLE12=In the Garden
TTITLE13=In the Sweet By and By
TTITLE14=Church in the Wildwood
TTITLE15=Family Bible
TTITLE16=Rock of Ages
TTITLE17=(There'll Be) Peace in the Valley (For Me)
TTITLE18=Beautiful Isle of Somewhere
TTITLE19=The Lord's Prayer
EXTD=
EXTT0=
EXTT1=
EXTT2=
EXTT3=
EXTT4=
EXTT5=
EXTT6=
EXTT7=
EXTT8=
EXTT9=
EXTT10=
EXTT11=
EXTT12=
EXTT13=
EXTT14=
EXTT15=
EXTT16=
EXTT17=
EXTT18=
EXTT19=
PLAYORDER=
